<?xml version="1.0" ?><!DOCTYPE svg  PUBLIC '-//W3C//DTD SVG 1.1//EN'  'http://www.w3.org/Graphics/SVG/1.1/DTD/svg11.dtd'><svg enable-background="new 0 0 100 100" height="100px" version="1.1" viewBox="0 0 100 100" width="100px" xml:space="preserve" xmlns="http://www.w3.org/2000/svg" xmlns:xlink="http://www.w3.org/1999/xlink"><g id="color_x5F_fill"><path d="M40.338,88.688c-0.059-5.368,0.203-10.888-0.029-17.967c-0.048-1.454-0.096-16.768-0.266-17.574   c0,0-6.469,0.045-9.42,0.062c0,0-0.197-5.652-0.197-7.562c0-1.878,0-3.754,0-5.632c0,0,7.524-0.408,9.639-0.593   c0,0,0.295-7.168,0.589-9.491c0.337-2.653,0.409-5.333,1.968-7.682c2.854-4.295,5.69-8.081,10.938-9.224   c1.984-0.432,15.084-3.006,15.57-0.89l-0.294,12.748c-3.56,0-7.821-0.363-11.454,2.337c-2.022,1.505-2.578,2.759-2.783,5.231   c-0.121,1.44-0.149,7.266-0.149,7.266c1.918,0.275,4.757,0.154,6.818,0c2.33-0.173,8.308,0.445,8.308,0.445   c0,3.855-0.154,12.76-0.14,13.139c-2.382-0.039-4.557,0.031-7.324-0.089c-0.448-0.021-7.655,0.087-7.634,0.217   c0.523,3.206-0.229,6.61-0.184,9.851c0.026,1.889,0.582,18.976,0.326,25.276L40.338,88.688z" fill="#3A5897"/></g><g id="offset_x5F_print_x5F_outline"/></svg>